<svg width="56" height="55" viewBox="0 0 56 55" fill="none" xmlns="http://www.w3.org/2000/svg">
<g filter="url(#filter0_d_13211_283)">
<path d="M47.631 17.7122C47.4567 17.5378 47.2157 17.4375 46.9683 17.4375C46.7217 17.4375 46.4798 17.5378 46.3055 17.7122C46.1311 17.8866 46.0308 18.1284 46.0308 18.375C46.0308 18.6216 46.131 18.8634 46.3055 19.0378C46.4799 19.2122 46.7217 19.3125 46.9683 19.3125C47.2158 19.3125 47.4567 19.2122 47.631 19.0378C47.8054 18.8634 47.9058 18.6216 47.9058 18.375C47.9058 18.1284 47.8054 17.8866 47.631 17.7122Z" fill="#FF3F3A"/>
<path d="M46.7812 6.9375H45.7076C45.8735 6.76837 45.9762 6.53691 45.9762 6.28125V5.0625C45.9762 3.30488 44.5463 1.875 42.7887 1.875C41.0311 1.875 39.6012 3.30488 39.6012 5.0625V6.9375H30.907C31.0729 6.76837 31.1756 6.53691 31.1756 6.28125V5.0625C31.1756 3.30488 29.7457 1.875 27.9881 1.875C26.2305 1.875 24.8006 3.30488 24.8006 5.0625V6.9375H16.1064C16.2723 6.76837 16.375 6.53691 16.375 6.28125V5.0625C16.375 3.30488 14.9451 1.875 13.1875 1.875C11.4299 1.875 10 3.30488 10 5.0625V6.9375H9.21878C6.34113 6.9375 4 9.27863 4 12.1563V43.3125C4 44.8633 5.26169 46.125 6.8125 46.125H23C23.5177 46.125 23.9375 45.7053 23.9375 45.1875C23.9375 44.6697 23.5177 44.25 23 44.25H6.8125C6.29556 44.25 5.875 43.8294 5.875 43.3125V19.3125H42.3756C42.8933 19.3125 43.3131 18.8928 43.3131 18.375C43.3131 17.8572 42.8933 17.4375 42.3756 17.4375H5.875V12.1563C5.875 10.3125 7.375 8.8125 9.21878 8.8125H10V11.0782C10 12.8359 11.4299 14.2657 13.1875 14.2657C14.9451 14.2657 16.375 12.8359 16.375 11.0782C16.375 10.5605 15.9552 10.1407 15.4375 10.1407C14.9198 10.1407 14.5 10.5605 14.5 11.0782C14.5 11.802 13.9113 12.3907 13.1875 12.3907C12.4637 12.3907 11.875 11.802 11.875 11.0782V8.8125H24.8006V11.0782C24.8006 12.8359 26.2305 14.2657 27.9881 14.2657C29.7457 14.2657 31.1756 12.8359 31.1756 11.0782C31.1756 10.5605 30.7558 10.1407 30.2381 10.1407C29.7204 10.1407 29.3006 10.5605 29.3006 11.0782C29.3006 11.802 28.7118 12.3907 27.9881 12.3907C27.2643 12.3907 26.6756 11.802 26.6756 11.0782V8.8125H39.6012V11.0782C39.6012 12.8359 41.0311 14.2657 42.7887 14.2657C44.5463 14.2657 45.9762 12.8359 45.9762 11.0782C45.9762 10.5605 45.5564 10.1407 45.0387 10.1407C44.521 10.1407 44.1012 10.5605 44.1012 11.0782C44.1012 11.802 43.5124 12.3907 42.7887 12.3907C42.0649 12.3907 41.4762 11.802 41.4762 11.0782V8.8125H46.7812C48.625 8.8125 50.125 10.3125 50.125 12.1563V43.3125C50.125 43.8294 49.7044 44.25 49.1875 44.25H33C32.4823 44.25 32.0625 44.6697 32.0625 45.1875C32.0625 45.7053 32.4823 46.125 33 46.125H49.1875C50.7383 46.125 52 44.8633 52 43.3125V12.1563C52 9.27863 49.6589 6.9375 46.7812 6.9375ZM11.875 6.9375V5.0625C11.875 4.33875 12.4637 3.75 13.1875 3.75C13.9113 3.75 14.5 4.33875 14.5 5.0625V6.28125C14.5 6.53691 14.6027 6.76837 14.7686 6.9375H11.875ZM26.6756 6.9375V5.0625C26.6756 4.33875 27.2643 3.75 27.9881 3.75C28.7118 3.75 29.3006 4.33875 29.3006 5.0625V6.28125C29.3006 6.53691 29.4032 6.76837 29.5692 6.9375H26.6756ZM41.4762 6.9375V5.0625C41.4762 4.33875 42.0649 3.75 42.7887 3.75C43.5124 3.75 44.1012 4.33875 44.1012 5.0625V6.28125C44.1012 6.53691 44.2038 6.76837 44.3698 6.9375H41.4762Z" fill="#FF3F3A"/>
<path d="M13 22.3125C10.8288 22.3125 9.0625 24.0788 9.0625 26.25C9.0625 28.4212 10.8288 30.1875 13 30.1875C15.1712 30.1875 16.9375 28.4212 16.9375 26.25C16.9375 24.0788 15.1712 22.3125 13 22.3125ZM13 28.3125C11.8627 28.3125 10.9375 27.3873 10.9375 26.25C10.9375 25.1127 11.8627 24.1875 13 24.1875C14.1373 24.1875 15.0625 25.1127 15.0625 26.25C15.0625 27.3873 14.1373 28.3125 13 28.3125Z" fill="#FF3F3A"/>
<path d="M43 22.3125C40.8288 22.3125 39.0625 24.0788 39.0625 26.25C39.0625 28.4212 40.8288 30.1875 43 30.1875C45.1712 30.1875 46.9375 28.4212 46.9375 26.25C46.9375 24.0788 45.1712 22.3125 43 22.3125ZM43 28.3125C41.8627 28.3125 40.9375 27.3873 40.9375 26.25C40.9375 25.1127 41.8627 24.1875 43 24.1875C44.1373 24.1875 45.0625 25.1127 45.0625 26.25C45.0625 27.3873 44.1373 28.3125 43 28.3125Z" fill="#FF3F3A"/>
<path d="M33.001 22.3125C30.8298 22.3125 29.0635 24.0788 29.0635 26.25C29.0635 28.4212 30.8298 30.1875 33.001 30.1875C35.1721 30.1875 36.9385 28.4212 36.9385 26.25C36.9385 24.0788 35.1721 22.3125 33.001 22.3125ZM33.001 28.3125C31.8637 28.3125 30.9385 27.3873 30.9385 26.25C30.9385 25.1127 31.8637 24.1875 33.001 24.1875C34.1383 24.1875 35.0635 25.1127 35.0635 26.25C35.0635 27.3873 34.1383 28.3125 33.001 28.3125Z" fill="#FF3F3A"/>
<path d="M22.999 22.3125C20.8279 22.3125 19.0615 24.0788 19.0615 26.25C19.0615 28.4212 20.8279 30.1875 22.999 30.1875C25.1702 30.1875 26.9365 28.4212 26.9365 26.25C26.9365 24.0788 25.1702 22.3125 22.999 22.3125ZM22.999 28.3125C21.8617 28.3125 20.9365 27.3873 20.9365 26.25C20.9365 25.1127 21.8617 24.1875 22.999 24.1875C24.1363 24.1875 25.0615 25.1127 25.0615 26.25C25.0615 27.3873 24.1363 28.3125 22.999 28.3125Z" fill="#FF3F3A"/>
<path d="M13 33.75C10.8288 33.75 9.0625 35.5163 9.0625 37.6875C9.0625 39.8587 10.8288 41.625 13 41.625C15.1712 41.625 16.9375 39.8587 16.9375 37.6875C16.9375 35.5163 15.1712 33.75 13 33.75ZM13 39.75C11.8627 39.75 10.9375 38.8248 10.9375 37.6875C10.9375 36.5502 11.8627 35.625 13 35.625C14.1373 35.625 15.0625 36.5502 15.0625 37.6875C15.0625 38.8248 14.1373 39.75 13 39.75Z" fill="#FF3F3A"/>
<path d="M33.001 33.75C30.8298 33.75 29.0635 35.5163 29.0635 37.6875C29.0635 39.8587 30.8298 41.625 33.001 41.625C35.1721 41.625 36.9385 39.8587 36.9385 37.6875C36.9385 35.5163 35.1721 33.75 33.001 33.75ZM33.001 39.75C31.8637 39.75 30.9385 38.8248 30.9385 37.6875C30.9385 36.5502 31.8637 35.625 33.001 35.625C34.1383 35.625 35.0635 36.5502 35.0635 37.6875C35.0635 38.8248 34.1383 39.75 33.001 39.75Z" fill="#FF3F3A"/>
<path d="M43 33.75C40.8288 33.75 39.0625 35.5163 39.0625 37.6875C39.0625 39.8587 40.8288 41.625 43 41.625C45.1712 41.625 46.9375 39.8587 46.9375 37.6875C46.9375 35.5163 45.1712 33.75 43 33.75ZM43 39.75C41.8627 39.75 40.9375 38.8248 40.9375 37.6875C40.9375 36.5502 41.8627 35.625 43 35.625C44.1373 35.625 45.0625 36.5502 45.0625 37.6875C45.0625 38.8248 44.1373 39.75 43 39.75Z" fill="#FF3F3A"/>
<path d="M22.999 33.75C20.8279 33.75 19.0615 35.5163 19.0615 37.6875C19.0615 39.8587 20.8279 41.625 22.999 41.625C25.1702 41.625 26.9365 39.8587 26.9365 37.6875C26.9365 35.5163 25.1702 33.75 22.999 33.75ZM22.999 39.75C21.8617 39.75 20.9365 38.8248 20.9365 37.6875C20.9365 36.5502 21.8617 35.625 22.999 35.625C24.1363 35.625 25.0615 36.5502 25.0615 37.6875C25.0615 38.8248 24.1363 39.75 22.999 39.75Z" fill="#FF3F3A"/>
<path d="M28.6627 44.5247C28.4884 44.3503 28.2466 44.25 28 44.25C27.7524 44.25 27.5116 44.3503 27.3372 44.5247C27.1619 44.6991 27.0625 44.9409 27.0625 45.1875C27.0625 45.4341 27.1619 45.6759 27.3372 45.8503C27.5116 46.0247 27.7525 46.125 28 46.125C28.2466 46.125 28.4884 46.0247 28.6627 45.8503C28.8371 45.6759 28.9375 45.4341 28.9375 45.1875C28.9375 44.9409 28.8372 44.6991 28.6627 44.5247Z" fill="#FF3F3A"/>
</g>
<defs>
<filter id="filter0_d_13211_283" x="0" y="0" width="56" height="56" filterUnits="userSpaceOnUse" color-interpolation-filters="sRGB">
<feFlood flood-opacity="0" result="BackgroundImageFix"/>
<feColorMatrix in="SourceAlpha" type="matrix" values="0 0 0 0 0 0 0 0 0 0 0 0 0 0 0 0 0 0 127 0" result="hardAlpha"/>
<feOffset dy="4"/>
<feGaussianBlur stdDeviation="2"/>
<feComposite in2="hardAlpha" operator="out"/>
<feColorMatrix type="matrix" values="0 0 0 0 0 0 0 0 0 0 0 0 0 0 0 0 0 0 0.25 0"/>
<feBlend mode="normal" in2="BackgroundImageFix" result="effect1_dropShadow_13211_283"/>
<feBlend mode="normal" in="SourceGraphic" in2="effect1_dropShadow_13211_283" result="shape"/>
</filter>
</defs>
</svg>
